<svg width="254" height="80" viewBox="0 0 254 80" fill="none" xmlns="http://www.w3.org/2000/svg">
<path d="M77.1362 47.4897C76.5173 46.6332 75.9183 45.7567 75.3394 44.8603C74.1415 42.9879 73.0435 41.0557 71.9853 39.1434C71.626 38.506 71.2866 37.8487 70.9272 37.2112C69.1104 42.7887 67.4734 48.3662 64.7582 53.7843C63.76 55.7563 62.622 57.6288 61.3043 59.4016C61.1247 59.6406 60.6854 60.0789 60.2462 60.5569C61.3842 61.4533 62.5821 62.2899 63.8598 63.0269C64.1593 63.2062 64.4787 63.3656 64.7981 63.505C70.0089 59.4813 74.2413 53.9237 77.1362 47.4897Z" fill="url(#paint0_linear_808_1538)"/>
<path d="M82.7263 53.625C82.7263 53.6051 82.7063 53.6051 82.7063 53.6051C82.1672 53.1669 81.6482 52.7087 81.169 52.2306C80.8496 51.9318 80.5501 51.6131 80.2507 51.2944C80.1109 51.1351 79.9512 50.9757 79.7915 50.8163C79.3922 50.3781 79.0129 49.9399 78.6535 49.5017C78.6335 49.4817 78.6136 49.4419 78.5936 49.422C78.0945 48.8045 77.6153 48.167 77.1362 47.5097C74.2413 53.9437 70.0288 59.5212 64.8181 63.525C64.898 63.5648 64.9978 63.6246 65.0777 63.6644C68.5315 65.2779 72.4246 65.517 75.8984 63.7043C78.2941 62.4493 80.5102 60.3379 81.8678 57.8878C82.5066 56.593 82.9459 55.2584 83.1655 54.0234C83.0257 53.864 82.866 53.7445 82.7263 53.625Z" fill="url(#paint1_linear_808_1538)"/>
<path d="M33.6336 42.2709C33.5937 42.1514 33.5537 42.0518 33.4938 41.9323C33.4938 41.992 33.4739 42.0518 33.4739 42.1115C33.5338 42.1713 33.5937 42.231 33.6336 42.2709Z" fill="url(#paint2_radial_808_1538)"/>
<path d="M75.8984 63.6644C72.0053 65.6962 67.5932 65.1583 63.8798 63.007C62.6021 62.27 61.4042 61.4533 60.2662 60.537C59.7272 61.0948 59.2281 61.6923 59.248 62.0111C59.248 62.0509 59.248 62.0907 59.268 62.1107C59.5674 63.8237 65.0178 65.3775 66.2356 65.6763C69.39 66.4531 72.764 66.2539 75.6189 64.6404C78.374 63.0867 80.5501 60.4972 81.8877 57.808C80.5102 60.298 78.2941 62.4095 75.8984 63.6644Z" fill="url(#paint3_linear_808_1538)"/>
<path d="M44.9135 20.2C46.0315 17.969 48.3274 16.1564 51.2422 15.5388C48.4472 14.762 45.3926 14.762 42.6176 16.3356C38.7844 18.5069 36.169 22.9888 35.8696 26.4547C35.8696 26.4747 35.8696 26.5145 35.8496 26.5543C35.8496 26.5145 35.8496 26.4946 35.8496 26.4547L35.8296 26.4348C35.3105 29.9407 34.8314 33.4664 34.2724 36.9723C33.1943 43.6453 31.6171 50.4976 27.6242 56.0751C27.3846 56.4137 26.0071 58.4455 25.1287 59.322C27.0053 58.6248 28.862 57.6886 30.6988 56.4137C43.3363 48.5654 38.6047 32.0123 44.9135 20.2Z" fill="url(#paint4_linear_808_1538)"/>
<path d="M56.992 18.3874C56.8722 18.3077 56.7524 18.2081 56.6326 18.1284C55.7542 17.5109 54.7759 16.9531 53.7178 16.4751C52.9192 16.1165 52.1007 15.7978 51.2422 15.5588C48.3274 16.1763 46.0315 17.989 44.9135 20.2199C38.6047 32.0322 43.3363 48.5853 30.6988 56.4536C28.862 57.7284 27.0053 58.6447 25.1287 59.3618C24.8492 59.6407 24.6096 59.82 24.4898 59.7801C25.528 60.0789 26.5861 60.298 27.6841 60.4175C28.8221 60.5371 30 60.557 31.1979 60.4375C33.4738 60.2383 35.61 59.6008 37.5266 58.6447C37.9459 58.2065 38.3452 57.7683 38.7245 57.3101C44.3345 50.5175 46.1912 41.6135 49.0062 33.4864C49.9046 30.9167 50.9028 28.367 52.1207 25.9368C53.3984 23.3672 55.0554 20.8175 57.1916 18.5666C57.1317 18.4869 57.0718 18.4272 56.992 18.3874Z" fill="url(#paint5_linear_808_1538)"/>
<path d="M76.3775 72.4688C79.5918 68.4252 81.3088 63.3656 82.3868 58.3857C82.6863 56.9714 82.9459 55.5771 83.1255 54.1429C82.9459 55.4177 82.5066 56.6726 81.8478 57.8479C80.4902 60.298 78.2742 62.4095 75.8784 63.6644C71.9854 65.6962 67.5732 65.1584 63.8598 63.0071C62.5821 62.27 61.3842 61.4533 60.2462 60.537C58.3097 59.0032 56.5927 57.2105 55.0954 55.1986C51.6615 50.657 49.2458 45.7368 46.5905 40.8964C46.0914 39.9602 45.5723 39.0439 45.0333 38.1276C42.8372 34.3628 39.9424 29.7813 35.8896 26.4547C35.8896 26.4746 35.8896 26.5145 35.8696 26.5543C35.8696 26.5145 35.8696 26.4946 35.8696 26.4547L35.8496 26.4348C35.3505 26.0364 34.8514 25.6579 34.3323 25.2994C32.296 24.7416 30.1398 24.5225 27.9237 24.7217C25.3683 24.9608 22.9925 25.7177 20.8962 26.873C27.4246 29.2634 31.138 35.6575 33.5338 41.9322C33.5737 42.0517 33.6136 42.1513 33.6735 42.2708C33.6935 42.2907 33.6935 42.3306 33.7134 42.3704C34.4921 44.462 35.1908 46.5734 35.8896 48.6849C36.1092 49.3223 36.3288 49.9598 36.5284 50.6171C36.748 51.2545 36.9677 51.9119 37.1873 52.5493C37.7263 54.1229 38.2454 55.6966 38.7844 57.2902C38.9841 57.8877 39.2037 58.5052 39.4233 59.1227C46.0914 68.7439 54.8758 77.4886 68.5914 75.1978C70.6877 74.9389 72.7839 74.6799 74.8003 74.3014C75.3194 73.7238 75.8784 73.1063 76.3775 72.4688Z" fill="url(#paint6_linear_808_1538)"/>
<path d="M39.3834 59.1227C42.2782 67.0906 46.7303 75.7755 55.1154 78.8232C62.3425 81.4525 69.5697 79.5602 74.7604 74.3014C72.724 74.6799 70.6278 74.9389 68.5515 75.1978C54.8159 77.4686 46.0515 68.7439 39.3834 59.1227Z" fill="url(#paint7_linear_808_1538)"/>
<path d="M35.9295 25.8173C35.8895 26.0364 35.8696 26.2356 35.8496 26.4348L35.8696 26.4547C35.8895 26.2556 35.9095 26.0364 35.9295 25.8173Z" fill="url(#paint8_radial_808_1538)"/>
<path d="M35.8696 26.5743C35.8696 26.5344 35.8696 26.5145 35.8895 26.4747C35.8696 26.4946 35.8696 26.5344 35.8696 26.5743Z" fill="url(#paint9_radial_808_1538)"/>
<path d="M35.8696 26.5743C35.8696 26.5344 35.8696 26.5145 35.8895 26.4747C35.8696 26.4946 35.8696 26.5344 35.8696 26.5743Z" fill="url(#paint10_radial_808_1538)"/>
<path d="M70.7476 12.7103C74.1415 16.0966 77.2759 19.6224 80.2706 23.2477C80.2307 23.1282 80.1708 22.9888 80.1309 22.8692C78.9929 19.8614 77.7551 16.9133 76.2977 14.0449C72.1051 5.85796 62.0231 -2.78711 52.2804 0.85816C50.9827 1.35615 49.725 1.95373 48.5471 2.67084C56.6926 2.65092 65.417 7.01329 70.7476 12.7103Z" fill="url(#paint11_linear_808_1538)"/>
<path d="M93.1477 51.5733C89.6738 48.3065 87.897 43.6652 86.1401 39.3228C83.984 34.0242 82.287 28.5662 80.2706 23.2278C77.2759 19.6025 74.1415 16.0767 70.7475 12.6904C65.417 7.01332 56.6925 2.65094 48.527 2.65094C43.5958 5.59903 39.7826 10.3399 38.0856 15.8377C37.0674 19.1045 36.2689 22.4709 35.9494 25.8174C35.9295 26.0365 35.9095 26.2556 35.8895 26.4548C36.189 22.9689 38.8043 18.5069 42.6375 16.3357C47.3891 13.6465 52.9592 15.5389 56.6526 18.1085C56.7724 18.1882 56.8922 18.2878 57.012 18.3674C57.0918 18.4272 57.1517 18.467 57.2116 18.5268C59.6872 20.3594 61.7635 22.5306 63.4804 24.8214C66.4551 28.7654 68.6712 32.9884 70.9472 37.1914C71.2866 37.8288 71.6459 38.4862 72.0053 39.1236C72.5244 40.0598 73.0235 40.9761 73.5625 41.8924C74.9401 44.223 76.5572 46.8922 78.5936 49.3622C78.6135 49.3821 78.6335 49.422 78.6534 49.4419C79.0128 49.9001 79.3921 50.3383 79.7914 50.7566C79.9312 50.916 80.0909 51.0753 80.2506 51.2347C80.5501 51.5534 80.8495 51.8721 81.169 52.1709C81.6681 52.649 82.1872 53.1071 82.7062 53.5453C82.7062 53.5055 82.7062 53.4856 82.7262 53.4457C82.7262 53.4856 82.7262 53.5055 82.7062 53.5453C82.7262 53.5453 82.7262 53.5653 82.7262 53.5653C82.866 53.6848 83.0257 53.8043 83.1654 53.9238C88.3163 58.1268 95.3038 59.0232 101.413 57.0113L102.291 55.6966C98.9174 55.617 95.2639 53.5653 93.1477 51.5733Z" fill="url(#paint12_linear_808_1538)"/>
<path d="M18.6203 21.6143C12.1518 22.5904 6.70148 26.3552 3.40734 31.5542C0.891811 35.4982 -0.365951 40.259 0.0932321 45.2787C0.552415 50.2984 2.68862 54.7604 5.86297 58.1866C5.54354 44.2429 6.82126 29.2236 18.6203 21.6143Z" fill="url(#paint13_linear_808_1538)"/>
<path d="M23.9708 65.0787C29.3811 64.5807 34.1726 62.1505 37.6864 58.5451C37.6464 58.565 37.5865 58.5849 37.5466 58.6049C35.6101 59.561 33.4938 60.1984 31.2179 60.3976C28.882 60.6167 26.626 60.3578 24.5098 59.7403C18.4805 57.9674 13.6891 53.127 12.1318 46.8723C11.9122 46.0157 11.7525 45.1193 11.6726 44.1831C10.9938 36.8727 14.827 30.1996 20.8763 26.8531C22.9925 25.6978 25.3683 24.9409 27.9038 24.7018C30.1198 24.5026 32.276 24.7217 34.3124 25.2795C34.4122 25.2994 34.512 25.3193 34.6118 25.3592C30.4991 22.4509 25.3483 20.937 19.9379 21.435C19.4987 21.4749 19.0595 21.5346 18.6203 21.5944C6.82127 29.2036 5.54355 44.223 5.86298 58.1467C10.335 62.9672 16.9033 65.7361 23.9708 65.0787Z" fill="url(#paint14_linear_808_1538)"/>
<g opacity="0.38">
<path opacity="0.38" d="M75.7586 45.4979C75.4591 45.0596 75.1996 44.6214 74.9201 44.1832C75.0599 44.4023 75.1996 44.6413 75.3394 44.8803C75.4791 45.0795 75.6189 45.2987 75.7586 45.4979Z" fill="#010101"/>
<path opacity="0.38" d="M82.7062 53.5055C82.7062 53.5453 82.7062 53.5653 82.6863 53.6051C82.7062 53.5653 82.7062 53.5453 82.7062 53.5055Z" fill="#010101"/>
<path opacity="0.38" d="M82.7062 53.625C82.7062 53.605 82.6663 53.605 82.6663 53.605C81.5882 53.1668 81.6281 52.7087 81.129 52.2306C80.8096 51.9318 80.5301 51.6131 80.2107 51.2944C80.0709 51.135 79.9112 50.9757 79.7714 50.8163C79.3721 50.3781 78.9928 49.9398 78.6335 49.4817C78.6135 49.4618 78.5536 49.4219 78.5336 49.402C78.3739 49.2028 78.2342 49.0036 78.1144 48.8044C78.2741 49.0036 78.4139 49.2028 78.5736 49.402C78.4139 49.2028 78.2541 48.9837 78.0944 48.7845C77.8748 48.4459 77.6552 48.0873 77.2958 47.7288C77.2359 47.6491 77.176 47.5694 77.1162 47.4897C76.9964 47.3105 76.8566 47.1312 76.7368 46.9519C76.8566 47.1312 76.9764 47.3105 77.1162 47.4897C77.176 47.5694 77.3158 47.6292 77.3757 47.6889C77.2958 47.6292 77.2359 47.5495 77.2359 47.4897C77.2359 47.3105 76.9365 47.1312 76.7967 46.9519C76.5172 46.5535 76.1978 46.1352 75.9183 45.7169C75.8784 45.6372 75.7985 45.5775 75.7586 45.4978C75.6188 45.2787 75.4791 45.0795 75.3393 44.8604C75.1996 44.6412 75.0598 44.4022 74.9201 44.1632C74.5607 43.5855 74.2213 43.0278 73.8819 42.47C73.8619 42.4501 73.8619 42.4302 73.842 42.4103C73.8619 42.4302 73.8619 42.4501 73.8819 42.47C73.2231 41.3545 72.5842 40.239 71.9853 39.1235C72.0053 39.1634 72.0452 39.2231 72.0651 39.263C72.0452 39.2231 72.0053 39.1634 71.9853 39.1235C71.6259 38.4861 71.2865 37.8288 70.9272 37.1913C70.7475 37.769 70.5478 38.3467 70.3682 38.9243C73.7422 45.0994 77.196 51.5533 82.7062 55.7763C82.9059 55.1588 83.0855 54.5413 83.1854 53.9437C83.0456 53.864 82.8659 53.7644 82.7062 53.625Z" fill="#010101"/>
<path opacity="0.38" d="M61.8633 58.6447C61.6837 58.9037 61.504 59.1626 61.3243 59.4017C61.1446 59.6407 60.7054 60.0789 60.2662 60.557C61.4042 61.4534 62.602 62.29 63.8797 63.027C64.2391 63.2262 64.6184 63.4254 64.9778 63.5848C65.0177 63.6047 65.0377 63.6246 65.0776 63.6445C65.2972 63.7441 65.4969 63.8437 65.7165 63.9234C65.7165 63.9234 65.7364 63.9234 65.7364 63.9433C65.9361 64.023 66.1557 64.1027 66.3553 64.1823C66.3753 64.1823 66.3953 64.2023 66.4152 64.2023C66.6149 64.2819 66.8145 64.3417 67.0142 64.4015C67.0341 64.4015 67.0741 64.4214 67.094 64.4214C67.2937 64.4811 67.4933 64.5409 67.693 64.5807C67.7129 64.5807 67.7329 64.5807 67.7529 64.6007C68.5914 64.7998 69.4299 64.9194 70.2883 64.9393C70.3482 64.9393 70.4081 64.9393 70.468 64.9393C70.6078 64.9393 70.7675 64.9393 70.9072 64.9393C71.0071 64.9393 71.1069 64.9393 71.2067 64.9393C71.3465 64.9393 71.4663 64.9194 71.606 64.9194C71.7258 64.9194 71.8256 64.8994 71.9454 64.8795C72.0652 64.8596 72.185 64.8397 72.3247 64.8397C72.4445 64.8198 72.5643 64.7999 72.6841 64.7799C72.8039 64.76 72.9237 64.7401 73.0434 64.7202C73.1832 64.7002 73.303 64.6604 73.4228 64.6206C73.5226 64.6007 73.6424 64.5608 73.7422 64.5409C73.882 64.5011 74.0217 64.4612 74.1615 64.4214C74.2613 64.3815 74.3611 64.3616 74.4609 64.3218C74.5208 64.3019 74.5607 64.2819 74.6206 64.262C69.7293 64.2023 64.9778 62.4892 61.8633 58.6447Z" fill="#010101"/>
<path opacity="0.38" d="M35.9893 25.658C35.8895 26.0962 35.9095 26.0763 35.8895 26.4946C38.0058 28.2276 39.8026 30.3191 41.3598 32.4505C42.7773 34.4026 43.9951 36.3747 45.0333 38.1674C45.5723 39.0837 46.0914 40 46.5905 40.9362C46.5905 40.9562 46.6105 40.9562 46.6105 40.9761C46.7702 40.498 46.9099 40.0199 47.0696 39.5419C45.3327 35.4384 41.5994 29.7614 35.9893 25.658Z" fill="#010101"/>
<path opacity="0.38" d="M56.6326 18.1284C56.2134 17.8296 55.7742 17.5707 55.315 17.2918C55.1952 17.2121 55.0554 17.1523 54.9157 17.0926C54.5763 16.9133 54.2369 16.734 53.8775 16.5548C53.8176 16.5348 53.7577 16.495 53.6979 16.4751C53.4982 16.3755 53.2786 16.2958 53.059 16.2161C52.8993 16.1564 52.7595 16.0767 52.5998 16.0169C52.1606 15.8576 51.7014 15.6982 51.2223 15.5588C50.7631 15.4193 50.2839 15.3197 49.8048 15.2401C49.2258 15.1405 48.6269 15.0807 48.0479 15.0608C47.988 15.0608 47.9281 15.0608 47.8682 15.0608C47.5887 15.0608 47.3092 15.0608 47.0297 15.0807C46.9299 15.0807 46.8101 15.1006 46.7103 15.1006C46.4707 15.1206 46.2511 15.1405 46.0115 15.1803C45.8917 15.2002 45.752 15.2201 45.6322 15.2401C45.4126 15.2799 45.193 15.3397 44.9933 15.3795C44.8736 15.4193 44.7338 15.4393 44.614 15.4791C44.3944 15.5389 44.1748 15.6385 43.9352 15.7181C43.8154 15.758 43.7156 15.7978 43.5958 15.8377C43.2564 15.9771 42.937 16.1364 42.6176 16.3157C41.6193 16.8735 40.7409 17.5906 39.9224 18.4073C45.1531 15.9771 50.9627 15.5787 56.8123 18.9451C56.9321 18.8057 57.0719 18.6662 57.1916 18.5268C57.1118 18.467 57.0519 18.4272 56.992 18.3674C56.8722 18.3077 56.7524 18.2081 56.6326 18.1284Z" fill="#010101"/>
<path opacity="0.38" d="M35.8496 26.4548L35.8696 26.4747C35.8696 26.5145 35.8696 26.5345 35.8696 26.5743C35.8696 26.5345 35.8696 26.5145 35.8895 26.4747C35.9095 26.2556 35.9295 26.0564 35.9494 25.8373C35.9095 26.0564 35.8696 26.2556 35.8496 26.4548Z" fill="#010101"/>
</g>
<path d="M114.21 16.1564L116.666 15.5588L122.575 31.6538L124.192 35.2393H120L118.343 30.7574H111.934L110.217 35.2393H106.744L114.21 16.1564ZM112.873 27.7694H117.504L115.508 22.1721L115.248 21.0366L114.949 22.192L112.873 27.7694Z" fill="#58595B"/>
<path d="M129.902 18.9053L129.503 15.9373H133.676V32.3111H141.062L140.344 35.2194H129.922V18.9053H129.902Z" fill="#58595B"/>
<path d="M152.322 15.9373C155.796 15.9373 159.15 17.8495 159.15 21.953C159.15 25.399 155.856 28.4268 151.324 28.4268H150.486V32.7693L150.805 35.2592H146.732V18.9252L146.333 15.9572H152.322V15.9373ZM151.803 25.5186C153.62 25.5186 155.257 23.9847 155.257 21.933C155.257 19.7419 153.64 18.726 151.803 18.726H150.506V25.5186H151.803Z" fill="#58595B"/>
<path d="M182.289 32.7493L182.609 35.2393H178.516V27.0922H169.492V32.7493L169.811 35.2393H165.719V18.9053L165.319 15.9373H169.492V23.9449H178.536V18.9252L178.137 15.9572H182.309V32.7493H182.289Z" fill="#58595B"/>
<path d="M195.126 16.1564L197.582 15.5588L203.491 31.6538L205.109 35.2393H200.916L199.259 30.7574H192.85L191.133 35.2393H187.66L195.126 16.1564ZM193.789 27.7694H198.42L196.424 22.1721L196.164 21.0366L195.865 22.192L193.789 27.7694Z" fill="#58595B"/>
<path d="M114.21 49.6211L116.666 49.0236L122.575 65.1185L124.192 68.704H120L118.343 64.2222H111.934L110.217 68.704H106.744L114.21 49.6211ZM112.873 61.2342H117.504L115.508 55.6368L115.248 54.5014L114.949 55.6568L112.873 61.2342Z" fill="#58595B"/>
<path d="M142.779 54.2225C141.162 52.5692 139.425 51.9119 137.708 51.9119C134.434 51.9119 131.979 55.2982 131.979 59.1626C131.979 63.6644 134.874 66.1344 138.008 66.1344C139.984 66.1344 142.181 65.2181 143.858 63.4253L144.556 66.3933C142.74 68.0666 139.925 69.0825 137.469 69.0825C132.697 69.0825 128.086 65.8555 128.086 59.4613C128.086 53.366 132.278 49.0634 137.708 49.0634C140.324 49.0634 142.48 49.8203 144.337 51.4537L142.779 54.2225Z" fill="#58595B"/>
<path d="M155.058 49.6211L157.513 49.0236L163.423 65.1185L165.04 68.7041H160.847L159.19 64.2222H152.782L151.065 68.7041H147.591L155.058 49.6211ZM153.74 61.2342H158.372L156.375 55.6368L156.116 54.5014L155.816 55.6568L153.74 61.2342Z" fill="#58595B"/>
<path d="M178.176 49.3821C182.489 49.3821 186.721 52.2704 186.721 58.9235C186.721 64.501 183.048 68.6841 177.318 68.6841H170.77V52.3501L170.37 49.3821H178.176ZM174.523 65.8954H177.657C180.612 65.8954 182.748 62.9871 182.748 59.1028C182.748 55.1787 180.612 52.1907 177.657 52.1907H174.523V65.8954Z" fill="#58595B"/>
<path d="M193.429 52.3701L193.03 49.4021H204.13V52.2705H197.203V57.3898H203.312L202.593 60.2582H197.203V65.8357H204.51L203.791 68.7041H193.449V52.3701H193.429Z" fill="#58595B"/>
<path d="M215.131 58.6049L214.172 56.7325V66.2142L214.492 68.7041H210.838V52.3701L210.439 49.4021H213.414L221.499 60.8757L228.886 49.4021H231.402V66.2142L231.721 68.7041H227.628V56.7723L226.79 58.6248L221.18 66.9114L215.131 58.6049Z" fill="#58595B"/>
<path d="M247.074 66.1943L247.393 68.6842H243.301V60.3379L238.869 51.8522L237.072 49.4021H241.684L245.097 55.9955L245.477 57.1309L245.856 55.9955L249.25 49.4021H253.023L247.094 60.059V66.1943H247.074Z" fill="#58595B"/>
<defs>
<linearGradient id="paint0_linear_808_1538" x1="63.9649" y1="59.4124" x2="73.4072" y2="43.6398" gradientUnits="userSpaceOnUse">
<stop stop-color="#005E39"/>
<stop offset="1" stop-color="#8EC641"/>
</linearGradient>
<linearGradient id="paint1_linear_808_1538" x1="72.3743" y1="62.9758" x2="82.9914" y2="37.9493" gradientUnits="userSpaceOnUse">
<stop stop-color="#005E39"/>
<stop offset="1" stop-color="#8EC641"/>
</linearGradient>
<radialGradient id="paint2_radial_808_1538" cx="0" cy="0" r="1" gradientUnits="userSpaceOnUse" gradientTransform="translate(40.1782 39.8165) rotate(-5.2381) scale(53.0824 40.4065)">
<stop offset="0.362" stop-color="#13351B"/>
<stop offset="0.3848" stop-color="#1E3D22"/>
<stop offset="0.5648" stop-color="#6A835C"/>
<stop offset="0.6922" stop-color="#A7BF8B"/>
<stop offset="0.7546" stop-color="#C5E0A3"/>
<stop offset="1" stop-color="#B0D24D"/>
</radialGradient>
<linearGradient id="paint3_linear_808_1538" x1="73.3397" y1="47.4659" x2="70.1677" y2="61.688" gradientUnits="userSpaceOnUse">
<stop stop-color="#8CC542"/>
<stop offset="1" stop-color="#0B4421"/>
</linearGradient>
<linearGradient id="paint4_linear_808_1538" x1="32.3782" y1="56.3316" x2="42.4025" y2="23.6297" gradientUnits="userSpaceOnUse">
<stop stop-color="#F04B24"/>
<stop offset="1" stop-color="#FDB716"/>
</linearGradient>
<linearGradient id="paint5_linear_808_1538" x1="43.6262" y1="35.4126" x2="51.8859" y2="18.8559" gradientUnits="userSpaceOnUse">
<stop stop-color="#F04B24"/>
<stop offset="1" stop-color="#FDB716"/>
</linearGradient>
<linearGradient id="paint6_linear_808_1538" x1="37.1924" y1="35.6198" x2="75.7971" y2="71.1532" gradientUnits="userSpaceOnUse">
<stop stop-color="#005E39"/>
<stop offset="1" stop-color="#8EC641"/>
</linearGradient>
<linearGradient id="paint7_linear_808_1538" x1="49.0776" y1="69.4653" x2="72.3622" y2="75.0029" gradientUnits="userSpaceOnUse">
<stop stop-color="#005E39"/>
<stop offset="1" stop-color="#8EC641"/>
</linearGradient>
<radialGradient id="paint8_radial_808_1538" cx="0" cy="0" r="1" gradientUnits="userSpaceOnUse" gradientTransform="translate(40.132 39.8294) rotate(-5.23824) scale(52.7587 40.1612)">
<stop offset="0.362" stop-color="#13351B"/>
<stop offset="0.3848" stop-color="#1E3D22"/>
<stop offset="0.5648" stop-color="#6A835C"/>
<stop offset="0.6922" stop-color="#A7BF8B"/>
<stop offset="0.7546" stop-color="#C5E0A3"/>
<stop offset="1" stop-color="#B0D24D"/>
</radialGradient>
<radialGradient id="paint9_radial_808_1538" cx="0" cy="0" r="1" gradientUnits="userSpaceOnUse" gradientTransform="translate(76.4979 18.4228) rotate(-5.23776) scale(55.8542 42.5137)">
<stop offset="0.362" stop-color="#13351B"/>
<stop offset="0.3848" stop-color="#1E3D22"/>
<stop offset="0.5648" stop-color="#6A835C"/>
<stop offset="0.6922" stop-color="#A7BF8B"/>
<stop offset="0.7546" stop-color="#C5E0A3"/>
<stop offset="1" stop-color="#B0D24D"/>
</radialGradient>
<radialGradient id="paint10_radial_808_1538" cx="0" cy="0" r="1" gradientUnits="userSpaceOnUse" gradientTransform="translate(42.0093 61.6853) rotate(174.762) scale(56.0827 42.6876)">
<stop offset="0.362" stop-color="#13351B"/>
<stop offset="0.3848" stop-color="#1E3D22"/>
<stop offset="0.5648" stop-color="#6A835C"/>
<stop offset="0.6922" stop-color="#A7BF8B"/>
<stop offset="0.7546" stop-color="#C5E0A3"/>
<stop offset="1" stop-color="#B0D24D"/>
</radialGradient>
<linearGradient id="paint11_linear_808_1538" x1="53.7165" y1="0.323062" x2="65.7392" y2="8.42218" gradientUnits="userSpaceOnUse">
<stop stop-color="#F04B24"/>
<stop offset="1" stop-color="#FDB716"/>
</linearGradient>
<linearGradient id="paint12_linear_808_1538" x1="51.3848" y1="13.1552" x2="76.3704" y2="52.7885" gradientUnits="userSpaceOnUse">
<stop stop-color="#F04B24"/>
<stop offset="1" stop-color="#FDB716"/>
</linearGradient>
<linearGradient id="paint13_linear_808_1538" x1="19.8143" y1="22.3307" x2="7.99567" y2="39.9496" gradientUnits="userSpaceOnUse">
<stop stop-color="#49B880"/>
<stop offset="1" stop-color="#151943"/>
</linearGradient>
<linearGradient id="paint14_linear_808_1538" x1="16.5318" y1="28.2782" x2="26.651" y2="65.2668" gradientUnits="userSpaceOnUse">
<stop stop-color="#49B880"/>
<stop offset="1" stop-color="#151943"/>
</linearGradient>
</defs>
</svg>
